<svg xmlns="http://www.w3.org/2000/svg" viewBox="0 0 790.05 876.86"><defs><style>.cls-1{fill:#231f20;}.cls-2{fill:#fff;}</style></defs><g id="Layer_2" data-name="Layer 2"><path class="cls-1" d="M895.44,604.44V187.83A127.34,127.34,0,0,0,768.1,60.49H232.73A127.34,127.34,0,0,0,105.39,187.83V604.44a127.31,127.31,0,0,0,49.78,101L422.86,911A127.32,127.32,0,0,0,578,911L845.66,705.43A127.34,127.34,0,0,0,895.44,604.44Z" transform="translate(-105.39 -60.49)"/><path class="cls-2" d="M668.05,580.93a169.59,169.59,0,0,1,2.11,25.37c.77,93.77-76.94,171.12-170.71,169.93A168.65,168.65,0,0,1,335.56,578.84a32.09,32.09,0,0,0-22.39-36.16A168.68,168.68,0,0,1,195.26,356.47c10.15-71,64.61-128,135.15-140.78,59.3-10.77,114.36,9.53,151.65,47.38a25.24,25.24,0,0,0,36,0A168.07,168.07,0,0,1,644.6,212.21c90.23,3,162.49,77.66,162.75,167.94A168.59,168.59,0,0,1,692.87,540.32,36.83,36.83,0,0,0,668.05,580.93Z" transform="translate(-105.39 -60.49)"/><circle class="cls-1" cx="267.15" cy="336.55" r="64.37"/><circle class="cls-1" cx="521.69" cy="337.34" r="64.37"/><path class="cls-1" d="M413.23,579c0-1.48,166.48-1.48,166.48,0a83.24,83.24,0,0,1-166.48,0Z" transform="translate(-105.39 -60.49)"/></g></svg>